<svg id="Capa_1" enable-background="new 0 0 510 510" height="512" viewBox="0 0 510 510" width="512" xmlns="http://www.w3.org/2000/svg"><g><path d="m305.197 171.07c-5.34-25.57-20.77-47.78-42.49-61.73 5.51 21.18 9.06 44.24 10.17 66.66h27.39z"/><path d="m227.077 95.45c-.566 0-15.485-3.264-33.57-.01-.395.197-13.28 35.126-15.82 80.56h65.14c-1.55-27.73-7.24-56.98-15.75-80.55z"/><path d="m239.507 236.76c1.62-10.22 2.75-20.59 3.31-30.76h-65.12c1.48 26.66 6.8 54.72 14.78 77.79z"/><path d="m109.257 446c-8.28 0-15-6.72-15-15s6.72-15 15-15h41.71c-9.267-9.267-16.856-17.897-20-34h-56.11c-8.29 0-15-6.72-15-15s6.71-15 15-15h58.04c5.354-16.062 14.002-22.633 33.24-41.87-49.39-18.23-82.88-65.5-82.88-119.13 0-58.03 39.21-108.62 95.35-123.02 62.568-16.053 127.985 17.313 150.78 78.9 12.456-12.456 25.975-19.26 43.52-19.26 15.64 0 30.35 6.09 41.41 17.15l2.94 2.94v-97.48c0-27.7-22.53-50.23-50.23-50.23h-313.54c-27.7 0-50.23 22.53-50.23 50.23v409.54c0 27.7 22.53 50.23 50.23 50.23h191.48l-64.5-64.5c-2.633.706 2.224.5-71.21.5z"/><path d="m114.417 176h33.22c1.11-22.42 4.66-45.48 10.17-66.66-23.1 14.83-39.09 39.03-43.39 66.66z"/><path d="m114.417 206c4.3 27.63 20.29 51.83 43.39 66.66-5.51-21.18-9.06-44.24-10.17-66.66z"/><path d="m367.027 510c27.7 0 50.23-22.53 50.23-50.23v-24.58l-74.81 74.81z"/><path d="m168.247 390.84 27.57 27.57 221.68-228.03-24.39-24.39c-11.046-11.045-29.137-11.273-40.4-.01l-184.46 184.47c-11.14 11.12-11.197 29.214 0 40.39z"/><path d="m498.366 271.25-59.66-59.66-221.68 228.04 56.48 56.48c11.165 11.165 29.227 11.173 40.4 0l184.46-184.46c11.164-11.163 11.175-29.226 0-40.4z"/></g></svg>